# Blender v2.77 (sub 0) OBJ File: 'wire_bend.blend'
# www.blender.org
mtllib wire_bend.mtl
o BezierCurve
v 0.002688 0.054440 0.000000
v 0.004350 0.052153 0.000000
v 0.004350 0.049326 0.000000
v 0.002688 0.047039 0.000000
v -0.000000 0.046165 -0.000000
v -0.002688 0.047039 -0.000000
v -0.004350 0.049326 -0.000000
v -0.004350 0.052153 -0.000000
v -0.002688 0.054440 -0.000000
v -0.000000 0.055313 0.000000
v 0.002688 0.053842 -0.006448
v 0.004350 0.051590 -0.006049
v 0.004350 0.048806 -0.005556
v 0.002688 0.046555 -0.005157
v -0.000000 0.045694 -0.005004
v -0.002688 0.046555 -0.005157
v -0.004350 0.048806 -0.005556
v -0.004350 0.051590 -0.006049
v -0.002688 0.053842 -0.006448
v -0.000000 0.054702 -0.006601
v 0.002688 0.052147 -0.012890
v 0.004350 0.049982 -0.012154
v 0.004350 0.047305 -0.011245
v 0.002688 0.045140 -0.010509
v -0.000000 0.044312 -0.010228
v -0.002688 0.045140 -0.010509
v -0.004350 0.047305 -0.011245
v -0.004350 0.049982 -0.012154
v -0.002688 0.052147 -0.012890
v -0.000000 0.052974 -0.013171
v 0.002688 0.049497 -0.019211
v 0.004350 0.047446 -0.018201
v 0.004350 0.044910 -0.016952
v 0.002688 0.042858 -0.015941
v -0.000000 0.042074 -0.015555
v -0.002688 0.042858 -0.015941
v -0.004350 0.044910 -0.016952
v -0.004350 0.047446 -0.018201
v -0.002688 0.049497 -0.019211
v -0.000000 0.050281 -0.019597
v 0.002688 0.046015 -0.025323
v 0.004350 0.044092 -0.024084
v 0.004350 0.041716 -0.022553
v 0.002688 0.039794 -0.021315
v -0.000000 0.039059 -0.020842
v -0.002688 0.039794 -0.021315
v -0.004350 0.041716 -0.022553
v -0.004350 0.044092 -0.024084
v -0.002688 0.046015 -0.025323
v -0.000000 0.046749 -0.025796
v 0.002688 0.041809 -0.031133
v 0.004350 0.040027 -0.029700
v 0.004350 0.037825 -0.027927
v 0.002688 0.036043 -0.026494
v -0.000000 0.035363 -0.025946
v -0.002688 0.036043 -0.026494
v -0.004350 0.037825 -0.027927
v -0.004350 0.040027 -0.029700
v -0.002688 0.041809 -0.031133
v -0.000000 0.042490 -0.031681
v 0.002688 0.036981 -0.036545
v 0.004350 0.035353 -0.034938
v 0.004350 0.033340 -0.032953
v 0.002688 0.031712 -0.031347
v -0.000000 0.031091 -0.030733
v -0.002688 0.031712 -0.031347
v -0.004350 0.033340 -0.032953
v -0.004350 0.035353 -0.034938
v -0.002688 0.036981 -0.036545
v -0.000000 0.037602 -0.037158
v 0.002688 0.031625 -0.041455
v 0.004350 0.030168 -0.039691
v 0.004350 0.028368 -0.037512
v 0.002688 0.026911 -0.035749
v -0.000000 0.026355 -0.035075
v -0.002688 0.026911 -0.035749
v -0.004350 0.028368 -0.037512
v -0.004350 0.030168 -0.039691
v -0.002688 0.031625 -0.041455
v -0.000000 0.032181 -0.042128
v 0.002688 0.025832 -0.045756
v 0.004350 0.024572 -0.043847
v 0.004350 0.023015 -0.041487
v 0.002688 0.021756 -0.039578
v -0.000000 0.021275 -0.038849
v -0.002688 0.021756 -0.039578
v -0.004350 0.023015 -0.041487
v -0.004350 0.024572 -0.043847
v -0.002688 0.025832 -0.045756
v -0.000000 0.026313 -0.046485
v 0.002688 0.019688 -0.049334
v 0.004350 0.018661 -0.047290
v 0.004350 0.017393 -0.044764
v 0.002688 0.016366 -0.042721
v -0.000000 0.015974 -0.041940
v -0.002688 0.016366 -0.042721
v -0.004350 0.017393 -0.044764
v -0.004350 0.018661 -0.047290
v -0.002688 0.019688 -0.049334
v -0.000000 0.020080 -0.050115
v 0.002688 0.013275 -0.052068
v 0.004350 0.012531 -0.049905
v 0.004350 0.011610 -0.047233
v 0.002688 0.010865 -0.045070
v -0.000000 0.010581 -0.044244
v -0.002688 0.010865 -0.045070
v -0.004350 0.011610 -0.047233
v -0.004350 0.012531 -0.049905
v -0.002688 0.013275 -0.052068
v 0.000000 0.013560 -0.052894
v 0.002688 0.006677 -0.053821
v 0.004350 0.006275 -0.051569
v 0.004350 0.005779 -0.048786
v 0.002688 0.005377 -0.046535
v -0.000000 0.005224 -0.045675
v -0.002688 0.005377 -0.046535
v -0.004350 0.005779 -0.048786
v -0.004350 0.006275 -0.051569
v -0.002688 0.006677 -0.053821
v 0.000000 0.006830 -0.054681
v 0.002688 -0.000000 -0.054440
v 0.004350 0.000000 -0.052153
v 0.004350 0.000000 -0.049326
v 0.002688 0.000000 -0.047039
v -0.000000 0.000000 -0.046165
v -0.002688 0.000000 -0.047039
v -0.004350 -0.000000 -0.049326
v -0.004350 -0.000000 -0.052153
v -0.002688 -0.000000 -0.054440
v 0.000000 -0.000000 -0.055313
vn 0.577800 0.812700 -0.075400
vn 0.580200 0.802000 -0.141700
vn 0.000000 0.984700 -0.173900
vn 0.000000 0.995700 -0.092300
vn 0.945200 0.325100 -0.030200
vn 0.946200 0.318600 -0.056300
vn 0.956000 -0.292000 0.027300
vn 0.955700 -0.289700 0.051500
vn 0.595200 -0.800100 0.075100
vn 0.595600 -0.790900 0.140700
vn 0.000000 -0.995600 0.093600
vn 0.000000 -0.984500 0.175200
vn -0.595200 -0.800100 0.075100
vn -0.595600 -0.790900 0.140700
vn -0.956000 -0.292000 0.027300
vn -0.955700 -0.289700 0.051500
vn -0.945200 0.325100 -0.030200
vn -0.946200 0.318600 -0.056300
vn -0.577800 0.812700 -0.075400
vn -0.580200 0.802000 -0.141700
vn 0.581300 0.770500 -0.261400
vn 0.000000 0.947000 -0.321200
vn 0.947000 0.304300 -0.103300
vn 0.955000 -0.280700 0.095500
vn 0.594300 -0.761300 0.259100
vn 0.000000 -0.946600 0.322200
vn -0.594300 -0.761300 0.259100
vn -0.955000 -0.280700 0.095500
vn -0.947000 0.304300 -0.103300
vn -0.581300 0.770500 -0.261400
vn 0.582200 0.729500 -0.359100
vn 0.000000 0.897200 -0.441600
vn 0.947500 0.286800 -0.141200
vn 0.954500 -0.267500 0.131800
vn 0.593500 -0.721900 0.355800
vn 0.000000 -0.896900 0.442100
vn -0.593500 -0.721900 0.355800
vn -0.954500 -0.267500 0.131800
vn -0.947500 0.286800 -0.141200
vn -0.582200 0.729500 -0.359100
vn 0.582700 0.683200 -0.440000
vn 0.000000 0.840700 -0.541500
vn 0.947900 0.267900 -0.172500
vn 0.954100 -0.251600 0.162100
vn 0.592900 -0.676900 0.436200
vn 0.000000 -0.840500 0.541700
vn -0.592900 -0.676900 0.436200
vn -0.954100 -0.251600 0.162100
vn -0.947900 0.267900 -0.172500
vn -0.582700 0.683200 -0.440000
vn 0.583000 0.633000 -0.509300
vn 0.000000 0.779100 -0.626900
vn 0.948100 0.247800 -0.199400
vn 0.953900 -0.233600 0.188000
vn 0.592600 -0.627500 0.505000
vn 0.000000 -0.779000 0.627000
vn -0.592600 -0.627500 0.505000
vn -0.953900 -0.233600 0.188000
vn -0.948100 0.247800 -0.199400
vn -0.583000 0.633000 -0.509300
vn 0.583100 0.578300 -0.570500
vn 0.000000 0.711800 -0.702300
vn 0.948100 0.226300 -0.223200
vn 0.953900 -0.213600 0.210700
vn 0.592500 -0.573400 0.565800
vn 0.000000 -0.711800 0.702300
vn -0.592500 -0.573400 0.565800
vn -0.953900 -0.213600 0.210700
vn -0.948100 0.226300 -0.223200
vn -0.583100 0.578300 -0.570500
vn 0.583000 0.517300 -0.626500
vn 0.000000 0.636800 -0.771100
vn 0.948000 0.202600 -0.245300
vn 0.954000 -0.190900 0.231100
vn 0.592600 -0.513000 0.621000
vn 0.000000 -0.636900 0.770900
vn -0.592600 -0.513000 0.621000
vn -0.954000 -0.190900 0.231100
vn -0.948000 0.202600 -0.245300
vn -0.583000 0.517300 -0.626500
vn 0.582600 0.447500 -0.678500
vn 0.000000 0.550500 -0.834800
vn 0.947800 0.175500 -0.266200
vn 0.954200 -0.164700 0.249600
vn 0.593000 -0.443500 0.672000
vn 0.000000 -0.550800 0.834600
vn -0.593000 -0.443500 0.672000
vn -0.954200 -0.164700 0.249600
vn -0.947800 0.175500 -0.266200
vn -0.582600 0.447500 -0.678500
vn 0.582000 0.364800 -0.726700
vn 0.000000 0.448600 -0.893700
vn 0.947400 0.143600 -0.286000
vn 0.954600 -0.133700 0.266200
vn 0.593600 -0.361400 0.719000
vn 0.000000 -0.449100 0.893400
vn -0.593600 -0.361400 0.719000
vn -0.954600 -0.133700 0.266200
vn -0.947400 0.143600 -0.286000
vn -0.582000 0.364800 -0.726700
vn 0.581100 0.264700 -0.769500
vn 0.000000 0.325200 -0.945600
vn 0.946800 0.104600 -0.304100
vn 0.955100 -0.096500 0.280000
vn 0.594500 -0.262200 0.760100
vn 0.000000 -0.326200 0.945300
vn -0.594500 -0.262200 0.760100
vn -0.955100 -0.096500 0.280000
vn -0.946800 0.104600 -0.304100
vn -0.581100 0.264700 -0.769500
vn 0.580100 0.142700 -0.801900
vn 0.000000 0.175100 -0.984500
vn 0.946100 0.056700 -0.318700
vn 0.955800 -0.051700 0.289400
vn 0.595700 -0.141500 0.790600
vn 0.000000 -0.176300 0.984300
vn -0.595700 -0.141500 0.790600
vn -0.955800 -0.051700 0.289400
vn -0.946100 0.056700 -0.318700
vn -0.580100 0.142700 -0.801900
vn 0.577700 0.075400 -0.812700
vn 0.000000 0.092300 -0.995700
vn 0.945200 0.030200 -0.325100
vn 0.956000 -0.027300 0.292100
vn 0.595100 -0.075000 0.800100
vn 0.000000 -0.093400 0.995600
vn -0.595100 -0.075000 0.800100
vn -0.956000 -0.027300 0.292100
vn -0.945200 0.030200 -0.325100
vn -0.577700 0.075400 -0.812700
usemtl None
s 1
f 1//1 11//2 20//3 10//4
f 2//5 12//6 11//2 1//1
f 3//7 13//8 12//6 2//5
f 4//9 14//10 13//8 3//7
f 5//11 15//12 14//10 4//9
f 6//13 16//14 15//12 5//11
f 7//15 17//16 16//14 6//13
f 8//17 18//18 17//16 7//15
f 9//19 19//20 18//18 8//17
f 10//4 20//3 19//20 9//19
f 11//2 21//21 30//22 20//3
f 12//6 22//23 21//21 11//2
f 13//8 23//24 22//23 12//6
f 14//10 24//25 23//24 13//8
f 15//12 25//26 24//25 14//10
f 16//14 26//27 25//26 15//12
f 17//16 27//28 26//27 16//14
f 18//18 28//29 27//28 17//16
f 19//20 29//30 28//29 18//18
f 20//3 30//22 29//30 19//20
f 21//21 31//31 40//32 30//22
f 22//23 32//33 31//31 21//21
f 23//24 33//34 32//33 22//23
f 24//25 34//35 33//34 23//24
f 25//26 35//36 34//35 24//25
f 26//27 36//37 35//36 25//26
f 27//28 37//38 36//37 26//27
f 28//29 38//39 37//38 27//28
f 29//30 39//40 38//39 28//29
f 30//22 40//32 39//40 29//30
f 31//31 41//41 50//42 40//32
f 32//33 42//43 41//41 31//31
f 33//34 43//44 42//43 32//33
f 34//35 44//45 43//44 33//34
f 35//36 45//46 44//45 34//35
f 36//37 46//47 45//46 35//36
f 37//38 47//48 46//47 36//37
f 38//39 48//49 47//48 37//38
f 39//40 49//50 48//49 38//39
f 40//32 50//42 49//50 39//40
f 41//41 51//51 60//52 50//42
f 42//43 52//53 51//51 41//41
f 43//44 53//54 52//53 42//43
f 44//45 54//55 53//54 43//44
f 45//46 55//56 54//55 44//45
f 46//47 56//57 55//56 45//46
f 47//48 57//58 56//57 46//47
f 48//49 58//59 57//58 47//48
f 49//50 59//60 58//59 48//49
f 50//42 60//52 59//60 49//50
f 51//51 61//61 70//62 60//52
f 52//53 62//63 61//61 51//51
f 53//54 63//64 62//63 52//53
f 54//55 64//65 63//64 53//54
f 55//56 65//66 64//65 54//55
f 56//57 66//67 65//66 55//56
f 57//58 67//68 66//67 56//57
f 58//59 68//69 67//68 57//58
f 59//60 69//70 68//69 58//59
f 60//52 70//62 69//70 59//60
f 61//61 71//71 80//72 70//62
f 62//63 72//73 71//71 61//61
f 63//64 73//74 72//73 62//63
f 64//65 74//75 73//74 63//64
f 65//66 75//76 74//75 64//65
f 66//67 76//77 75//76 65//66
f 67//68 77//78 76//77 66//67
f 68//69 78//79 77//78 67//68
f 69//70 79//80 78//79 68//69
f 70//62 80//72 79//80 69//70
f 71//71 81//81 90//82 80//72
f 72//73 82//83 81//81 71//71
f 73//74 83//84 82//83 72//73
f 74//75 84//85 83//84 73//74
f 75//76 85//86 84//85 74//75
f 76//77 86//87 85//86 75//76
f 77//78 87//88 86//87 76//77
f 78//79 88//89 87//88 77//78
f 79//80 89//90 88//89 78//79
f 80//72 90//82 89//90 79//80
f 81//81 91//91 100//92 90//82
f 82//83 92//93 91//91 81//81
f 83//84 93//94 92//93 82//83
f 84//85 94//95 93//94 83//84
f 85//86 95//96 94//95 84//85
f 86//87 96//97 95//96 85//86
f 87//88 97//98 96//97 86//87
f 88//89 98//99 97//98 87//88
f 89//90 99//100 98//99 88//89
f 90//82 100//92 99//100 89//90
f 91//91 101//101 110//102 100//92
f 92//93 102//103 101//101 91//91
f 93//94 103//104 102//103 92//93
f 94//95 104//105 103//104 93//94
f 95//96 105//106 104//105 94//95
f 96//97 106//107 105//106 95//96
f 97//98 107//108 106//107 96//97
f 98//99 108//109 107//108 97//98
f 99//100 109//110 108//109 98//99
f 100//92 110//102 109//110 99//100
f 101//101 111//111 120//112 110//102
f 102//103 112//113 111//111 101//101
f 103//104 113//114 112//113 102//103
f 104//105 114//115 113//114 103//104
f 105//106 115//116 114//115 104//105
f 106//107 116//117 115//116 105//106
f 107//108 117//118 116//117 106//107
f 108//109 118//119 117//118 107//108
f 109//110 119//120 118//119 108//109
f 110//102 120//112 119//120 109//110
f 111//111 121//121 130//122 120//112
f 112//113 122//123 121//121 111//111
f 113//114 123//124 122//123 112//113
f 114//115 124//125 123//124 113//114
f 115//116 125//126 124//125 114//115
f 116//117 126//127 125//126 115//116
f 117//118 127//128 126//127 116//117
f 118//119 128//129 127//128 117//118
f 119//120 129//130 128//129 118//119
f 120//112 130//122 129//130 119//120
